<svg xmlns="http://www.w3.org/2000/svg" xmlns:xlink="http://www.w3.org/1999/xlink" width="585" height="581" viewBox="0 0 585 581">
  <defs>
    <linearGradient id="a" x1="73.8%" x2="53.9%" y1="20.1%" y2="53.4%">
      <stop offset="0%" stop-color="#169AFF"/>
      <stop offset="100%" stop-color="#043567" stop-opacity=".1"/>
      <stop offset="100%" stop-color="#022753" stop-opacity="0"/>
    </linearGradient>
    <linearGradient id="b" x1="53.7%" x2="53.7%" y1="25.9%" y2="80.2%">
      <stop offset="0%" stop-color="#2588D6"/>
      <stop offset="100%" stop-color="#1B5097" stop-opacity=".2"/>
    </linearGradient>
    <linearGradient id="c" x1="53.7%" x2="53.7%" y1="25.9%" y2="80.2%">
      <stop offset="0%" stop-color="#1995DA"/>
      <stop offset="100%" stop-color="#115986" stop-opacity=".3"/>
    </linearGradient>
    <linearGradient id="d" x1="53.7%" x2="53.7%" y1="25.9%" y2="80.2%">
      <stop offset="0%" stop-color="#4BBEF2"/>
      <stop offset="100%" stop-color="#1559BA" stop-opacity=".2"/>
    </linearGradient>
    <linearGradient id="f" x1="39.8%" x2="50.8%" y1="0%" y2="80.2%">
      <stop offset="0%" stop-color="#4BBEF2"/>
      <stop offset="100%" stop-color="#013D93" stop-opacity=".4"/>
    </linearGradient>
    <linearGradient id="e" x1="50%" x2="50%" y1="0%" y2="100%">
      <stop offset="0%" stop-color="#3EBAFB"/>
      <stop offset="100%" stop-color="#70CCFC"/>
    </linearGradient>
    <linearGradient id="g" x1="73.8%" x2="53.9%" y1="20.1%" y2="53.4%">
      <stop offset="0%" stop-color="#169AFF"/>
      <stop offset="100%" stop-color="#043567" stop-opacity=".1"/>
      <stop offset="100%" stop-color="#022753" stop-opacity="0"/>
    </linearGradient>
    <linearGradient id="h" x1="54.9%" x2="100%" y1="50%" y2="31.2%">
      <stop offset="0%" stop-color="#012754"/>
      <stop offset="100%" stop-color="#FFF"/>
    </linearGradient>
    <linearGradient id="i" x1="54.9%" x2="100%" y1="50%" y2="31.6%">
      <stop offset="0%" stop-color="#012754"/>
      <stop offset="100%" stop-color="#FFF"/>
    </linearGradient>
    <linearGradient id="j" x1="54.9%" x2="100%" y1="50%" y2="31.4%">
      <stop offset="0%" stop-color="#012754"/>
      <stop offset="100%" stop-color="#FFF"/>
    </linearGradient>
    <linearGradient id="k" x1="54.9%" x2="100%" y1="50%" y2="31.1%">
      <stop offset="0%" stop-color="#012754"/>
      <stop offset="100%" stop-color="#FFF"/>
    </linearGradient>
    <linearGradient id="l" x1="54.9%" x2="100%" y1="50%" y2="31.3%">
      <stop offset="0%" stop-color="#012754"/>
      <stop offset="100%" stop-color="#FFF"/>
    </linearGradient>
    <linearGradient id="m" x1="54.9%" x2="100%" y1="50%" y2="30.6%">
      <stop offset="0%" stop-color="#012754"/>
      <stop offset="100%" stop-color="#FFF"/>
    </linearGradient>
    <linearGradient id="n" x1="54.9%" x2="100%" y1="50%" y2="31.2%">
      <stop offset="0%" stop-color="#012754"/>
      <stop offset="100%" stop-color="#FFF"/>
    </linearGradient>
    <linearGradient id="o" x1="54.9%" x2="100%" y1="50%" y2="30.1%">
      <stop offset="0%" stop-color="#012754"/>
      <stop offset="100%" stop-color="#FFF"/>
    </linearGradient>
    <linearGradient id="p" x1="54.9%" x2="100%" y1="50%" y2="30.2%">
      <stop offset="0%" stop-color="#012754"/>
      <stop offset="100%" stop-color="#FFF"/>
    </linearGradient>
    <linearGradient id="q" x1="54.9%" x2="100%" y1="50%" y2="30.4%">
      <stop offset="0%" stop-color="#012754"/>
      <stop offset="100%" stop-color="#FFF"/>
    </linearGradient>
    <linearGradient id="r" x1="38.1%" x2="65.9%" y1="50%" y2="38.3%">
      <stop offset="0%" stop-color="#E40F0F"/>
      <stop offset="100%" stop-color="#B00000"/>
    </linearGradient>
    <linearGradient id="s" x1="50%" x2="50%" y1="100%" y2="4.9%">
      <stop offset="0%" stop-color="#FFF" stop-opacity=".4"/>
      <stop offset="100%" stop-color="#FFF" stop-opacity=".2"/>
    </linearGradient>
    <linearGradient id="v" x1="54.9%" x2="100%" y1="50%" y2="31.2%">
      <stop offset="0%" stop-color="#012754"/>
      <stop offset="100%" stop-color="#FFF"/>
    </linearGradient>
    <linearGradient id="w" x1="54.9%" x2="100%" y1="50%" y2="31.6%">
      <stop offset="0%" stop-color="#012754" stop-opacity="0"/>
      <stop offset="100%" stop-color="#FFF"/>
    </linearGradient>
    <linearGradient id="x" x1="54.9%" x2="100%" y1="50%" y2="31.4%">
      <stop offset="0%" stop-color="#012754"/>
      <stop offset="100%" stop-color="#FFF"/>
    </linearGradient>
    <linearGradient id="y" x1="54.9%" x2="100%" y1="50%" y2="31.1%">
      <stop offset="0%" stop-color="#012754" stop-opacity="0"/>
      <stop offset="100%" stop-color="#FFF"/>
    </linearGradient>
    <linearGradient id="z" x1="54.9%" x2="100%" y1="50%" y2="31.3%">
      <stop offset="0%" stop-color="#012754"/>
      <stop offset="100%" stop-color="#FFF"/>
    </linearGradient>
    <linearGradient id="A" x1="54.9%" x2="100%" y1="50%" y2="30.6%">
      <stop offset="0%" stop-color="#012754"/>
      <stop offset="100%" stop-color="#FFF"/>
    </linearGradient>
    <linearGradient id="D" x1="0%" x2="100%" y1="73.7%" y2="31.2%">
      <stop offset="0%" stop-color="#012754"/>
      <stop offset="100%" stop-color="#FFF"/>
    </linearGradient>
    <linearGradient id="E" x1="0%" x2="100%" y1="76.5%" y2="30.1%">
      <stop offset="0%" stop-color="#012754"/>
      <stop offset="100%" stop-color="#FFF"/>
    </linearGradient>
    <linearGradient id="H" x1="13.2%" x2="100%" y1="67.9%" y2="30.2%">
      <stop offset="0%" stop-color="#012754"/>
      <stop offset="100%" stop-color="#FFF"/>
    </linearGradient>
    <linearGradient id="I" x1="22.2%" x2="100%" y1="64.9%" y2="30.4%">
      <stop offset="0%" stop-color="#012754" stop-opacity="0"/>
      <stop offset="100%" stop-color="#FFF"/>
    </linearGradient>
    <linearGradient id="J" x1="73.8%" x2="53.9%" y1="20.1%" y2="53.4%">
      <stop offset="0%" stop-color="#169AFF"/>
      <stop offset="100%" stop-color="#043567" stop-opacity=".1"/>
      <stop offset="100%" stop-color="#022753" stop-opacity="0"/>
    </linearGradient>
    <linearGradient id="K" x1="53.7%" x2="53.7%" y1="25.9%" y2="80.2%">
      <stop offset="0%" stop-color="#2588D6"/>
      <stop offset="100%" stop-color="#1B5097" stop-opacity=".2"/>
    </linearGradient>
    <linearGradient id="L" x1="53.7%" x2="53.7%" y1="25.9%" y2="80.2%">
      <stop offset="0%" stop-color="#1995DA"/>
      <stop offset="100%" stop-color="#115986" stop-opacity=".3"/>
    </linearGradient>
    <linearGradient id="M" x1="53.7%" x2="53.7%" y1="25.9%" y2="80.2%">
      <stop offset="0%" stop-color="#4BBEF2"/>
      <stop offset="100%" stop-color="#1559BA" stop-opacity=".2"/>
    </linearGradient>
    <linearGradient id="O" x1="39.8%" x2="50.8%" y1="0%" y2="80.2%">
      <stop offset="0%" stop-color="#4BBEF2"/>
      <stop offset="100%" stop-color="#013D93" stop-opacity=".4"/>
    </linearGradient>
    <linearGradient id="N" x1="50%" x2="50%" y1="0%" y2="100%">
      <stop offset="0%" stop-color="#3EBAFB"/>
      <stop offset="100%" stop-color="#70CCFC"/>
    </linearGradient>
    <linearGradient id="P" x1="78.4%" x2="22.8%" y1="40.5%" y2="50%">
      <stop offset="0%" stop-color="#FFF" stop-opacity=".2"/>
      <stop offset="100%" stop-color="#02234C" stop-opacity="0"/>
    </linearGradient>
    <linearGradient id="Q" x1="79.6%" x2="21.8%" y1="40.5%" y2="50%">
      <stop offset="0%" stop-color="#FFF" stop-opacity=".2"/>
      <stop offset="100%" stop-color="#02234C" stop-opacity="0"/>
    </linearGradient>
    <filter id="t" width="167.1%" height="155%" x="-33.5%" y="-27.5%" filterUnits="objectBoundingBox">
      <feMorphology in="SourceAlpha" operator="dilate" radius="2" result="shadowSpreadOuter1"/>
      <feOffset in="shadowSpreadOuter1" result="shadowOffsetOuter1"/>
      <feMorphology in="SourceAlpha" radius="1" result="shadowInner"/>
      <feOffset in="shadowInner" result="shadowInner"/>
      <feComposite in="shadowOffsetOuter1" in2="shadowInner" operator="out" result="shadowOffsetOuter1"/>
      <feGaussianBlur in="shadowOffsetOuter1" result="shadowBlurOuter1" stdDeviation="6.5"/>
      <feColorMatrix in="shadowBlurOuter1" result="shadowMatrixOuter1" values="0 0 0 0 1 0 0 0 0 1 0 0 0 0 1 0 0 0 0.5 0"/>
      <feMerge>
        <feMergeNode in="shadowMatrixOuter1"/>
        <feMergeNode in="SourceGraphic"/>
      </feMerge>
    </filter>
    <filter id="B" width="121.2%" height="133%" x="-10.6%" y="-12.5%" filterUnits="objectBoundingBox">
      <feMorphology in="SourceAlpha" operator="dilate" radius="1" result="shadowSpreadOuter1"/>
      <feOffset dy="2" in="shadowSpreadOuter1" result="shadowOffsetOuter1"/>
      <feMorphology in="SourceAlpha" radius="1" result="shadowInner"/>
      <feOffset dy="2" in="shadowInner" result="shadowInner"/>
      <feComposite in="shadowOffsetOuter1" in2="shadowInner" operator="out" result="shadowOffsetOuter1"/>
      <feGaussianBlur in="shadowOffsetOuter1" result="shadowBlurOuter1" stdDeviation="2"/>
      <feColorMatrix in="shadowBlurOuter1" values="0 0 0 0 0 0 0 0 0 0 0 0 0 0 0 0 0 0 0.5 0"/>
    </filter>
    <filter id="F" width="116.5%" height="125%" x="-8.3%" y="-9.5%" filterUnits="objectBoundingBox">
      <feMorphology in="SourceAlpha" operator="dilate" radius="1" result="shadowSpreadOuter1"/>
      <feOffset dy="2" in="shadowSpreadOuter1" result="shadowOffsetOuter1"/>
      <feMorphology in="SourceAlpha" radius="1" result="shadowInner"/>
      <feOffset dy="2" in="shadowInner" result="shadowInner"/>
      <feComposite in="shadowOffsetOuter1" in2="shadowInner" operator="out" result="shadowOffsetOuter1"/>
      <feGaussianBlur in="shadowOffsetOuter1" result="shadowBlurOuter1" stdDeviation="2"/>
      <feColorMatrix in="shadowBlurOuter1" values="0 0 0 0 0 0 0 0 0 0 0 0 0 0 0 0 0 0 0.5 0"/>
    </filter>
    <path id="C" d="M42.3 82.3l79-50.9"/>
    <path id="G" d="M2 71.7L103.6 4.5"/>
    <radialGradient id="u" cx="46.7%" cy="50%" r="47.5%" fx="46.7%" fy="50%">
      <stop offset="0%" stop-color="#FF7A7A" stop-opacity=".5"/>
      <stop offset="100%" stop-color="#EF3D3D" stop-opacity="0"/>
    </radialGradient>
  </defs>
  <g fill="none" fill-rule="evenodd" transform="translate(0 1)">
    <path fill="url(#a)" d="M44 186.5V154l96.7 55.9V244z" opacity=".7" transform="translate(444 196)"/>
    <path fill="url(#a)" d="M28 197.5V165l96.7 55.9V255z" opacity=".7" transform="translate(444 196)"/>
    <path fill="url(#a)" d="M14 206.5V174l96.7 55.9V264z" opacity=".7" transform="translate(444 196)"/>
    <path fill="url(#a)" d="M0 216.5V184l96.7 55.9V274z" opacity=".7" transform="translate(444 196)"/>
    <path fill="url(#b)" stroke="#75BBFF" d="M140.3 54v152.6l-93.6-54V0z" opacity=".7" transform="translate(444 196)"/>
    <path fill="url(#c)" stroke="#77BEFA" d="M124.5 64.5v152.7l-93.5-54V10.5z" opacity=".7" transform="translate(444 196)"/>
    <path fill="url(#d)" stroke="#70CCFC" d="M110.2 73.1v152.6l-93.5-54V19.1z" opacity=".7" transform="translate(444 196)"/>
    <path fill="url(#f)" stroke="url(#e)" d="M93.9 54v152.6l-93.5-54V0z" transform="translate(445 224.6)"/>
    <path fill="#323232" fill-opacity=".4" d="M538.8 304.5v14.4l-24.2-14v-14.4z"/>
    <path fill="#FF4271" d="M540.9 294.8v23.4l-32.8-19v-23.4z"/>
    <path fill="#FFF" d="M514.4 286.6l3 1.6 1.1.9a5.4 5.4 0 011.9 4.2c0 .6 0 1-.2 1.4-.2.3-.4.6-.7.7-.3.1-.6.2-1 .1a4 4 0 01-1.2-.5l-1-.6v3.5l-1.9-1v-10.3zm2.8 6.5c1 .6 1.5.3 1.5-.8 0-.5-.2-1-.4-1.3l-1-1-1-.5v3l1 .6zm4.6-2.4l2.2 1.3a7.7 7.7 0 012.9 2.8l.8 2a10 10 0 010 4.6c-.2.5-.5 1-.8 1.2-.3.2-.8.3-1.2.3-.5 0-1-.3-1.6-.6l-2.3-1.3v-10.3zm2 9.6l1 .3.7-.1c.2-.2.4-.4.5-.8l.1-1.5-.1-1.6-.5-1.2-.7-1-1-.6-.3-.2v6.5l.4.2zm5.7-5.3l5 2.7v2l-3.3-1.8v2.4l2.8 1.5v2l-2.8-1.5v4l-1.7-1V295z"/>
    <path stroke="#A3EBFF" stroke-linecap="round" stroke-width="2" d="M462.1 325l17.8 10.2"/>
    <path stroke="#A3EBFF" stroke-linecap="round" stroke-width="2" d="M462.1 295.7l22.3 12.8"/>
    <path stroke="#A3EBFF" stroke-linecap="round" stroke-width="2" d="M502.1 318.5l16.5 9.6"/>
    <path stroke="#A3EBFF" stroke-linecap="round" stroke-width="2" d="M488.8 311l9 5.2"/>
    <path stroke="#A3EBFF" stroke-linecap="round" stroke-width="2" d="M462.1 332.8l22.3 12.9"/>
    <path stroke="#A3EBFF" stroke-linecap="round" stroke-width="2" d="M488.8 348l9 5.3"/>
    <path stroke="#A3EBFF" stroke-linecap="round" stroke-width="2" d="M485 338.5l22.3 12.9"/>
    <path stroke="#A3EBFF" stroke-linecap="round" stroke-width="2" d="M475.5 325.2l16.5 9.5"/>
    <path stroke="#A3EBFF" stroke-linecap="round" stroke-width="2" d="M462.1 317.6l9.1 5.2"/>
    <path stroke="#A3EBFF" stroke-linecap="round" stroke-width="2" d="M462.4 310.6l56.9 32.8"/>
    <path stroke="#A3EBFF" stroke-linecap="round" stroke-width="2" d="M462.1 256.2l24.6 14.2"/>
    <path stroke="#A3EBFF" stroke-linecap="round" stroke-width="2" d="M462.1 262l18.8 10.7"/>
    <path stroke="#A3EBFF" stroke-linecap="round" stroke-width="2" d="M462.1 267.6l22.1 12.8"/>
    <path stroke="#A3EBFF" stroke-linecap="round" stroke-width="2" d="M462.1 358l24.6 14.2"/>
    <path stroke="#A3EBFF" stroke-linecap="round" stroke-width="2" d="M462.1 363.8l18.8 10.8"/>
    <path stroke="#A3EBFF" stroke-linecap="round" stroke-width="2" d="M491.7 320l27.2 15.7"/>
    <path stroke="#A3EBFF" stroke-linecap="round" stroke-width="2" d="M462.1 303l25.4 14.6"/>
    <g>
      <path fill="url(#a)" d="M43 186.5V154l96.7 55.9V244z" opacity=".7" transform="translate(424)"/>
      <path fill="url(#a)" d="M27 196.5V164l96.7 55.9V254z" opacity=".7" transform="translate(424)"/>
      <path fill="url(#a)" d="M15 206.5V174l96.7 55.9V264z" opacity=".7" transform="translate(424)"/>
      <path fill="url(#a)" d="M0 216.5V184l96.7 55.9V274z" opacity=".7" transform="translate(424)"/>
      <path fill="url(#b)" stroke="#75BBFF" d="M139.3 54v152.6l-93.6-54V0z" opacity=".7" transform="translate(424)"/>
      <path fill="url(#c)" stroke="#77BEFA" d="M123.5 64.5v152.7l-93.5-54V10.5z" opacity=".7" transform="translate(424)"/>
      <path fill="url(#d)" stroke="#70CCFC" d="M109.2 73.1v152.6l-93.5-54V19.1z" opacity=".7" transform="translate(424)"/>
      <path fill="url(#f)" stroke="url(#e)" d="M93.9 54v152.6l-93.5-54V0z" transform="translate(425 29.6)"/>
      <path fill="#323232" fill-opacity=".4" d="M520.8 107.6V122l-24.2-14V93.6z"/>
      <path fill="#FFAF4A" d="M522.9 97.8v23.5l-32.8-19V79z"/>
      <path fill="#B76801" d="M496.7 96.2a3.2 3.2 0 001 2.4 3.7 3.7 0 001.2.7l.5.1c.2 0 .3 0 .4-.2l.2-.5-.2-.8-.6-.8-.7-.7a35.3 35.3 0 01-2.4-2.6l-.6-1.2-.2-1.3c0-.5.1-1 .3-1.2.2-.3.4-.5.7-.6h.9c.3 0 .7.1 1 .3a7 7 0 012.2 2l.7 1.5c.2.6.3 1.1.3 1.7l-1.7-1-.1-.8a2.6 2.6 0 00-.9-1.2 4 4 0 00-.5-.4 2 2 0 00-.5-.2h-.3c-.1 0-.2 0-.3.2l-.1.5v.5l.4.6.7.7a206.7 206.7 0 002.6 2.6c.2.4.5.8.6 1.3.2.5.3 1 .3 1.6 0 .5 0 .9-.2 1.2-.1.3-.3.5-.6.7-.3.1-.6.2-1 0-.4 0-.9-.2-1.4-.5a7 7 0 01-3-3.8c-.3-.6-.3-1.2-.3-1.8l1.6 1zm9.5 9l-1.9-1.2-2.5-11.8 1.8 1 1.7 8.3 1.8-6.3 1.7 1-2.6 9zm9 4c-.4.3-.7.5-1 .5-.5 0-.8-.2-1.2-.4-.6-.3-1.1-.8-1.6-1.3a10.2 10.2 0 01-2-8.3c.2-.6.4-1 .8-1.3.3-.3.7-.5 1.2-.5s1 .2 1.6.5l1.1 1a7.3 7.3 0 011.8 2.8l.4 1.8-1.7-1c0-.6-.3-1.1-.6-1.6-.2-.5-.6-.8-1-1-.4-.3-.7-.4-1-.3a1 1 0 00-.7.4l-.3 1-.1 1.2a8.2 8.2 0 00.4 2.7l.7 1.1 1 1c.6.2 1 .3 1.3.1.3-.2.5-.7.5-1.4l-1.7-1v-1.7l3.3 2v5.6l-1.1-.7-.2-1.3z"/>
      <path stroke="#A3EBFF" stroke-linecap="round" stroke-width="2" d="M441.1 129l17.8 10.2"/>
      <path stroke="#A3EBFF" stroke-linecap="round" stroke-width="2" d="M441.1 99.7l22.3 12.8"/>
      <path stroke="#A3EBFF" stroke-linecap="round" stroke-width="2" d="M481.1 122.5l16.5 9.6"/>
      <path stroke="#A3EBFF" stroke-linecap="round" stroke-width="2" d="M467.8 115l9 5.2"/>
      <path stroke="#A3EBFF" stroke-linecap="round" stroke-width="2" d="M441.1 136.8l22.3 12.9"/>
      <path stroke="#A3EBFF" stroke-linecap="round" stroke-width="2" d="M467.8 152l9 5.3"/>
      <path stroke="#A3EBFF" stroke-linecap="round" stroke-width="2" d="M464 142.5l22.3 12.9"/>
      <path stroke="#A3EBFF" stroke-linecap="round" stroke-width="2" d="M454.5 129.2l16.5 9.5"/>
      <path stroke="#A3EBFF" stroke-linecap="round" stroke-width="2" d="M441.1 121.6l9.1 5.2"/>
      <path stroke="#A3EBFF" stroke-linecap="round" stroke-width="2" d="M441.4 114.6l56.9 32.8"/>
      <path stroke="#A3EBFF" stroke-linecap="round" stroke-width="2" d="M441.1 60.2l24.6 14.2"/>
      <path stroke="#A3EBFF" stroke-linecap="round" stroke-width="2" d="M441.1 66L460 76.6"/>
      <path stroke="#A3EBFF" stroke-linecap="round" stroke-width="2" d="M441.1 71.6l22.1 12.8"/>
      <path stroke="#A3EBFF" stroke-linecap="round" stroke-width="2" d="M441.1 162l24.6 14.2"/>
      <path stroke="#A3EBFF" stroke-linecap="round" stroke-width="2" d="M441.1 167.8l18.8 10.8"/>
      <path stroke="#A3EBFF" stroke-linecap="round" stroke-width="2" d="M470.7 124l27.2 15.7"/>
      <path stroke="#A3EBFF" stroke-linecap="round" stroke-width="2" d="M441.1 107l25.4 14.6"/>
    </g>
    <g>
      <path fill="url(#a)" d="M44 185.5V153l96.7 55.9V243z" opacity=".7" transform="translate(231)"/>
      <path fill="url(#a)" d="M14 205.5V173l96.7 55.9V263z" opacity=".7" transform="translate(231)"/>
      <path fill="url(#g)" d="M0 214.9V183l94.7 54.8v33.3z" opacity=".7" transform="translate(231)"/>
      <path fill="url(#a)" d="M28 196.5V164l96.7 55.9V254z" opacity=".7" transform="translate(231)"/>
      <path fill="url(#b)" stroke="#75BBFF" d="M140.3 54v152.6l-93.6-54V0z" opacity=".7" transform="translate(231)"/>
      <path fill="url(#c)" stroke="#77BEFA" d="M124.5 64.5v152.7l-93.5-54V10.5z" opacity=".7" transform="translate(231)"/>
      <path fill="url(#d)" stroke="#70CCFC" d="M110.2 73.1v152.6l-93.5-54V19.1z" opacity=".7" transform="translate(231)"/>
      <path fill="url(#f)" stroke="url(#e)" d="M93.9 54v152.6l-93.5-54V0z" transform="translate(232 28.6)"/>
      <path fill="#323232" fill-opacity=".4" d="M325.8 108.5v14.4l-24.2-14V94.6z"/>
      <path fill="#A5D351" d="M327.9 98.8v23.4l-32.8-19V79.9z"/>
      <path fill="#4B7500" d="M305.3 99l-.1-1.1a80.5 80.5 0 01-.7-4.2 1634.3 1634.3 0 00-.6 3.4l-.2 1 1.6 1zm.4 2.4l-2.4-1.4-.5 2.5-1.8-1 2.5-10.5 2.1 1.3 2.5 13.3-2-1.1-.4-3.1zm3.2-7.2l5 3v2.2l-3.2-1.9v2.8l2.7 1.6v2.2l-2.7-1.6v4.6l-1.8-1V94.2zm6.4 3.7l2.9 1.7 1.2 1a5.6 5.6 0 011.6 2.7c.2.6.2 1.2.2 2 0 .6 0 1.2-.2 1.6-.2.4-.4.7-.7.9-.3.1-.6.2-1 .1-.3 0-.7-.2-1.1-.4l-1.1-.7v4l-1.8-1V98zm2.7 7.4c1 .5 1.5.2 1.5-1 0-.7-.1-1.2-.4-1.6a3 3 0 00-1-1l-1-.6v3.6l1 .6z"/>
      <path stroke="#A3EBFF" stroke-linecap="round" stroke-width="2" d="M249.1 129l17.8 10.2"/>
      <path stroke="#A3EBFF" stroke-linecap="round" stroke-width="2" d="M249.1 99.7l22.3 12.8"/>
      <path stroke="#A3EBFF" stroke-linecap="round" stroke-width="2" d="M289.1 122.5l16.5 9.6"/>
      <path stroke="#A3EBFF" stroke-linecap="round" stroke-width="2" d="M275.8 115l9 5.2"/>
      <path stroke="#A3EBFF" stroke-linecap="round" stroke-width="2" d="M249.1 136.8l22.3 12.9"/>
      <path stroke="#A3EBFF" stroke-linecap="round" stroke-width="2" d="M275.8 152l9 5.3"/>
      <path stroke="#A3EBFF" stroke-linecap="round" stroke-width="2" d="M272 142.5l22.3 12.9"/>
      <path stroke="#A3EBFF" stroke-linecap="round" stroke-width="2" d="M262.5 129.2l16.5 9.5"/>
      <path stroke="#A3EBFF" stroke-linecap="round" stroke-width="2" d="M249.1 121.6l9.1 5.2"/>
      <path stroke="#A3EBFF" stroke-linecap="round" stroke-width="2" d="M249.4 114.6l56.9 32.8"/>
      <path stroke="#A3EBFF" stroke-linecap="round" stroke-width="2" d="M249.1 60.2l24.6 14.2"/>
      <path stroke="#A3EBFF" stroke-linecap="round" stroke-width="2" d="M249.1 66L268 76.6"/>
      <path stroke="#A3EBFF" stroke-linecap="round" stroke-width="2" d="M249.1 71.6l22.1 12.8"/>
      <path stroke="#A3EBFF" stroke-linecap="round" stroke-width="2" d="M249.1 162l24.6 14.2"/>
      <path stroke="#A3EBFF" stroke-linecap="round" stroke-width="2" d="M249.1 167.8l18.8 10.8"/>
      <path stroke="#A3EBFF" stroke-linecap="round" stroke-width="2" d="M278.7 124l27.2 15.7"/>
      <path stroke="#A3EBFF" stroke-linecap="round" stroke-width="2" d="M249.1 107l25.4 14.6"/>
    </g>
    <g>
      <g transform="rotate(2 -6370.8 3018)">
        <path stroke="url(#h)" stroke-dasharray="1 4" stroke-linecap="round" stroke-linejoin="round" stroke-width="2" d="M76.8 209.6L268.4 86" opacity=".8"/>
        <path stroke="url(#i)" stroke-dasharray="1 4" stroke-linecap="round" stroke-linejoin="round" stroke-width="2" d="M95.2 184.5L289 61" opacity=".8"/>
        <path stroke="url(#j)" stroke-dasharray="1 4" stroke-linecap="round" stroke-linejoin="round" stroke-width="2" d="M28.5 213L216.3 92.5" opacity=".8"/>
        <path stroke="url(#k)" stroke-dasharray="1 4" stroke-linecap="round" stroke-linejoin="round" stroke-width="2" d="M64.6 174L247.8 55.5" opacity=".8"/>
        <path stroke="url(#l)" stroke-dasharray="1 4" stroke-linecap="round" stroke-linejoin="round" stroke-width="2" d="M38.5 199.4l193-124.2" opacity=".8"/>
        <path stroke="url(#m)" stroke-dasharray="1 4" stroke-linecap="round" stroke-linejoin="round" stroke-width="2" d="M.6 194.7l184-120.4" opacity=".8"/>
        <path stroke="url(#n)" stroke-dasharray="1 4" stroke-linecap="round" stroke-linejoin="round" stroke-width="2" d="M94 147L276 29.5" opacity=".8"/>
        <path stroke="url(#o)" stroke-dasharray="1 4" stroke-linecap="round" stroke-linejoin="round" stroke-width="2" d="M94.8 124.2L274.6 5" opacity=".8"/>
        <path stroke="url(#p)" stroke-dasharray="1 4" stroke-linecap="round" stroke-linejoin="round" stroke-width="2" d="M78.4 123.9l181-119.6" opacity=".8"/>
        <path stroke="url(#q)" stroke-dasharray="1 4" stroke-linecap="round" stroke-linejoin="round" stroke-width="2" d="M28.5 142.3L209.7 23" opacity=".8"/>
        <circle cx="274.9" cy="83" r="2" fill="#FFF"/>
        <circle cx="292.6" cy="59.5" r="2" fill="#FFF"/>
        <circle cx="219.8" cy="91" r="2" fill="#FFF"/>
        <circle cx="251.3" cy="54" r="2" fill="#FFF"/>
        <circle cx="235.1" cy="73.7" r="2" fill="#FFF"/>
        <circle cx="189.4" cy="71.4" r="2" fill="#FFF"/>
        <circle cx="279.6" cy="28" r="2" fill="#FFF"/>
        <circle cx="278.1" cy="3.4" r="2" fill="#FFF"/>
        <circle cx="262.9" cy="2.7" r="2" fill="#FFF"/>
        <circle cx="213.3" cy="21.5" r="2" fill="#FFF"/>
      </g>
      <path fill="#000" d="M242.4 350.4l53.1 30.7-53.1 30.6-53-30.6z"/>
      <path fill="url(#r)" d="M106.5 30.7v61.4l-53.1 30.6V61.4z" opacity=".8" transform="translate(189 289)"/>
      <path fill="#F20101" d="M242.4 350.4v61.3l-53-30.6v-61.4z" opacity=".8"/>
      <path fill="#DA0101" fill-opacity=".9" d="M242.4 289l53.1 30.7-53.1 30.7-53-30.7z"/>
      <path fill="#8E8B8B" fill-opacity=".2" stroke="#FFF" stroke-linecap="round" stroke-linejoin="round" d="M344.4 291.1v118.1l-102.1 59.1V350.1z"/>
      <path fill="#BBB8B8" fill-opacity=".3" stroke="#FFF" stroke-linecap="round" stroke-linejoin="round" d="M242.3 350.1v118.2l-102.1-59.1V291.1z"/>
      <path fill="url(#s)" stroke="#FFF" stroke-linecap="round" stroke-linejoin="round" d="M102.2 0l102.1 59.1-102.1 59L.1 59.1z" transform="translate(140 232)"/>
      <g stroke="#FEFEFE" filter="url(#t)" transform="rotate(-6 3341.5 -2177.8)">
        <path stroke-width="1.8" d="M50.7 71.7l1.8-6.8-5.8-.8v-4.5l5.8-5.4-2-5.3-6.5 3.6-2.6-2.6 2.9-7.2-5.1-1.7-4.6 6.6-4.2.3-1.1-6.1-6.3 2.5-1 7-4.2 3.1-4.7-2.8-5 5.8 2.9 4.8-2.5 4.7L2 68.5.1 75.3l5.8.8.1 4.5L.2 86l1.9 5.3 6.5-3.6 2.6 2.6-2.8 7.2 5 1.7 4.7-6.6 4.2-.3 1.1 6.2 6.2-2.6 1.1-7 4.1-3.1 4.8 2.8 5-5.8-3-4.8 2.6-4.7z"/>
        <path stroke-width="1.6" d="M80.5 20.8l1.3-4.6-3.9-.5v-3L81.7 9l-1.3-3.5-4.3 2.4-1.8-1.7 2-4.8L72.9.2l-3.1 4.4-2.8.2-.8-4.1L62 2.4l-.7 4.7-2.8 2.1-3.1-1.9-3.4 3.9 2 3.2-1.7 3.1-4.4 1.1-1.2 4.6 3.9.5v3l-3.9 3.7 1.3 3.5 4.4-2.4 1.7 1.7-1.9 4.8 3.4 1.2 3.1-4.4 2.8-.2.8 4.1 4.1-1.7.7-4.7 2.8-2.1 3.2 1.9 3.3-3.9-1.9-3.2 1.7-3.1z"/>
        <path stroke-width="1.6" d="M64.7 12.8a10.8 10.8 0 00-6.4 9.2c0 3.6 2.9 5.4 6.4 4 3.6-1.4 6.5-5.5 6.5-9.1 0-3.7-3-5.5-6.5-4z"/>
        <path stroke-width="1.8" d="M26.3 58.3a19.8 19.8 0 00-11.8 16.8c0 6.7 5.3 10 11.8 7.4a19.8 19.8 0 0011.9-16.8c0-6.7-5.3-10-11.9-7.4z"/>
      </g>
    </g>
    <circle fill="url(#u)" style="mix-blend-mode:overlay" cx="245.1" cy="352.1" r="128.1"/>
    <g transform="rotate(2 -9763.7 2057.3)">
      <path stroke="url(#v)" stroke-dasharray="1 4" stroke-linecap="round" stroke-linejoin="round" stroke-width="2" d="M63.8 115.4l67.7-43.7" opacity=".8"/>
      <path stroke="url(#w)" stroke-dasharray="1 4" stroke-linecap="round" stroke-linejoin="round" stroke-width="2" d="M58 102l80.6-51.3" opacity=".8"/>
      <path stroke="url(#x)" stroke-dasharray="1 4" stroke-linecap="round" stroke-linejoin="round" stroke-width="2" d="M56.2 132.3l52.6-33.8" opacity=".8"/>
      <path stroke="url(#y)" stroke-dasharray="1 4" stroke-linecap="round" stroke-linejoin="round" stroke-width="2" d="M54.8 89.7l66-42.6" opacity=".8"/>
      <path stroke="url(#z)" stroke-dasharray="1 4" stroke-linecap="round" stroke-linejoin="round" stroke-width="2" d="M8 132.3l79-50.8" opacity=".8"/>
      <path stroke="url(#A)" stroke-dasharray="1 4" stroke-linecap="round" stroke-linejoin="round" stroke-width="2" d="M.9 95.5L45.7 66" opacity=".8"/>
      <g stroke-dasharray="1 4" stroke-linecap="round" stroke-linejoin="round" opacity=".8">
        <use fill="#000" filter="url(#B)" xlink:href="#C"/>
        <use stroke="url(#D)" stroke-width="2" xlink:href="#C"/>
      </g>
      <path stroke="url(#E)" stroke-dasharray="1 4" stroke-linecap="round" stroke-linejoin="round" stroke-width="2" d="M51.2 50.8l68.5-45.5" opacity=".8"/>
      <g stroke-dasharray="1 4" stroke-linecap="round" stroke-linejoin="round" opacity=".8">
        <use fill="#000" filter="url(#F)" xlink:href="#G"/>
        <use stroke="url(#H)" stroke-width="2" xlink:href="#G"/>
      </g>
      <path stroke="url(#I)" stroke-dasharray="1 4" stroke-linecap="round" stroke-linejoin="round" stroke-width="2" d="M48.7 64.9l85.6-56.3" opacity=".8"/>
      <circle cx="138.4" cy="68.6" r="2.1" fill="#FFF"/>
      <circle cx="142.4" cy="49.1" r="2.1" fill="#FFF"/>
      <circle cx="112.6" cy="96.9" r="2.1" fill="#FFF"/>
      <circle cx="124.6" cy="45.4" r="2.1" fill="#FFF"/>
      <circle cx="90.8" cy="79.8" r="2.1" fill="#FFF"/>
      <circle cx="50.8" cy="63.1" r="2.1" fill="#FFF"/>
      <circle cx="125.1" cy="29.7" r="2.1" fill="#FFF"/>
      <circle cx="123.5" cy="3.6" r="2.1" fill="#FFF"/>
      <circle cx="107.3" cy="2.9" r="2.1" fill="#FFF"/>
      <circle cx="138.1" cy="6.9" r="2.1" fill="#FFF"/>
    </g>
    <g>
      <path fill="url(#J)" d="M41 174.2V144l89.7 51.9v31.6z" opacity=".7" transform="translate(0 340)"/>
      <path fill="url(#J)" d="M27 184.2V154l89.7 51.9v31.6z" opacity=".7" transform="translate(0 340)"/>
      <path fill="url(#J)" d="M13 192.2V162l89.7 51.9v31.6z" opacity=".7" transform="translate(0 340)"/>
      <path fill="url(#J)" d="M0 202.2V172l89.7 51.9v31.6z" opacity=".7" transform="translate(0 340)"/>
      <path fill="url(#K)" stroke="#75BBFF" d="M131.3 50.5v142.8l-87.5-50.5V0z" opacity=".7" transform="translate(0 340)"/>
      <path fill="url(#L)" stroke="#77BEFA" d="M116.6 60.4v142.8L29 152.7V9.9z" opacity=".7" transform="translate(0 340)"/>
      <path fill="url(#M)" stroke="#70CCFC" d="M103.2 68.4v142.8l-87.5-50.5V17.9z" opacity=".7" transform="translate(0 340)"/>
      <path fill="url(#O)" stroke="url(#N)" d="M87.9 50.5v142.8L.4 142.8V0z" transform="translate(1 366.7)"/>
      <path stroke="#A3EBFF" stroke-linecap="round" stroke-width="2" d="M17 460.7l16.6 9.6"/>
      <path stroke="#A3EBFF" stroke-linecap="round" stroke-width="2" d="M17 433.3l20.9 12"/>
      <path stroke="#A3EBFF" stroke-linecap="round" stroke-width="2" d="M54.5 454.7l15.4 8.9"/>
      <path stroke="#A3EBFF" stroke-linecap="round" stroke-width="2" d="M42 447.5l8.5 5"/>
      <path stroke="#A3EBFF" stroke-linecap="round" stroke-width="2" d="M17 468L38 480"/>
      <path stroke="#A3EBFF" stroke-linecap="round" stroke-width="2" d="M42 482.3l8.5 4.9"/>
      <path stroke="#A3EBFF" stroke-linecap="round" stroke-width="2" d="M38.4 473.4l20.9 12"/>
      <path stroke="#A3EBFF" stroke-linecap="round" stroke-width="2" d="M29.5 460.9l15.4 9"/>
      <path stroke="#A3EBFF" stroke-linecap="round" stroke-width="2" d="M17 453.8l8.5 4.9"/>
      <path stroke="#A3EBFF" stroke-linecap="round" stroke-width="2" d="M17.3 447.2l53.2 30.7"/>
      <path stroke="#A3EBFF" stroke-linecap="round" stroke-width="2" d="M17 396.3l23 13.3"/>
      <path stroke="#A3EBFF" stroke-linecap="round" stroke-width="2" d="M17 401.7l17.6 10.1"/>
      <path stroke="#A3EBFF" stroke-linecap="round" stroke-width="2" d="M17 407l20.7 12"/>
      <path stroke="#A3EBFF" stroke-linecap="round" stroke-width="2" d="M17 491.6L40 505"/>
      <path stroke="#A3EBFF" stroke-linecap="round" stroke-width="2" d="M17 497L34.6 507"/>
      <path stroke="#A3EBFF" stroke-linecap="round" stroke-width="2" d="M44.7 456L70 470.7"/>
      <path stroke="#A3EBFF" stroke-linecap="round" stroke-width="2" d="M17 440l23.8 13.8"/>
    </g>
    <path fill="url(#P)" d="M75.6 302.4l172.3-11.9-62.5 128.4 56.8 83.5-151.7 4z" transform="rotate(154 161.7 398.4)"/>
    <path fill="url(#Q)" d="M277.3 191.8l156.1-10.9-52.8 108.7 66.3 95.9-151.8 4z" transform="rotate(154 362 285.2)"/>
  </g>
</svg>